<svg
   version="1.1"
   xmlns="http://www.w3.org/2000/svg"
   xmlns:svg="http://www.w3.org/2000/svg">
   <defs
      id="defs1" />
   <defs>
      <symbol id="light" viewBox="0 0 32 32">
         <path
            id="sun-body"
            d="m 16,8.84468 c -3.9537,8e-5 -7.15874,3.20352 -7.15874,7.15512 0,3.9516 3.20504,7.155 7.15874,7.1551 3.9537,-10e-5 7.1587,-3.2035 7.1587,-7.1551 0,-3.9516 -3.205,-7.15504 -7.1587,-7.15512 z m 0,1.05782 c 3.3691,1.3e-4 6.1003,2.7299 6.1004,6.0973 10e-5,1.6172 -0.6426,3.1681 -1.7866,4.3117 -1.1441,1.1436 -2.6958,1.7861 -4.3138,1.7861 -1.618,0 -3.1697,-0.6425 -4.3138,-1.7861 C 10.5422,19.1679 9.89949,17.617 9.89959,15.9998 9.89966,12.6324 12.6308,9.90263 16,9.9025 Z" />
         <path
            id="sun-beam1"
            d="m 15.6486,3.2318897 c 0.4187,0 0.7559,0.1914467 0.7559,0.4292487 v 2.3393882 c 0,0.2378021 -0.3372,0.429243 -0.7559,0.429243 -0.4188,0 -0.7559,-0.1914409 -0.7559,-0.429243 V 3.6611384 c 0,-0.237802 0.3371,-0.4292487 0.7559,-0.4292487 z M 6.7231053,7.2200599 C 7.0191709,6.9239943 7.3929806,6.8209312 7.561132,6.9890826 L 9.2153292,8.6432799 C 9.3834807,8.8114313 9.2804135,9.1852369 8.9843479,9.4813025 8.6882115,9.7774388 8.3144767,9.8804354 8.1463252,9.7122839 L 6.492128,8.0580866 C 6.3239765,7.8899352 6.426969,7.5161963 6.7231053,7.2200599 Z M 3.2318897,16.3514 c 0,-0.4187 0.1914467,-0.7559 0.4292487,-0.7559 h 2.3393882 c 0.2378021,0 0.429243,0.3372 0.429243,0.7559 0,0.4188 -0.1914409,0.7559 -0.429243,0.7559 H 3.6611384 c -0.237802,0 -0.4292487,-0.3371 -0.4292487,-0.7559 z m 3.9881702,8.925495 C 6.9239943,24.980829 6.8209312,24.607019 6.9890826,24.438868 l 1.6541973,-1.654197 c 0.1681514,-0.168152 0.541957,-0.06508 0.8380226,0.230981 0.2961363,0.296136 0.3991329,0.669871 0.2309814,0.838023 L 8.0580866,25.507872 C 7.8899352,25.676023 7.5161963,25.573031 7.2200599,25.276895 Z M 16.3514,28.76811 c -0.4187,0 -0.7559,-0.191446 -0.7559,-0.429248 v -2.339389 c 0,-0.237802 0.3372,-0.429243 0.7559,-0.429243 0.4188,0 0.7559,0.191441 0.7559,0.429243 v 2.339389 c 0,0.237802 -0.3371,0.429248 -0.7559,0.429248 z m 8.925495,-3.98817 c -0.296066,0.296066 -0.669876,0.399129 -0.838027,0.230977 L 22.784671,23.35672 c -0.168152,-0.168151 -0.06508,-0.541957 0.230981,-0.838023 0.296136,-0.296136 0.669871,-0.399132 0.838023,-0.230981 l 1.654197,1.654197 c 0.168151,0.168152 0.06516,0.541891 -0.230977,0.838027 z M 28.76811,15.6486 c 0,0.4187 -0.191446,0.7559 -0.429248,0.7559 h -2.339389 c -0.237802,0 -0.429243,-0.3372 -0.429243,-0.7559 0,-0.4188 0.191441,-0.7559 0.429243,-0.7559 h 2.339389 c 0.237802,0 0.429248,0.3371 0.429248,0.7559 z M 24.77994,6.7231053 c 0.296066,0.2960656 0.399129,0.6698753 0.230977,0.8380267 L 23.35672,9.2153292 C 23.188569,9.3834807 22.814763,9.2804135 22.518697,8.9843479 22.222561,8.6882115 22.119565,8.3144767 22.287716,8.1463252 L 23.941913,6.492128 c 0.168152,-0.1681515 0.541891,-0.065159 0.838027,0.2309773 z"
         />
      </symbol>
      <symbol id="dark" viewBox="0 0 32 32">
         <g id="moon-group">
            <path id="moon-body"
               d="M 13.180856,4.3886934 A 11.821005,11.82721 45 0 0 7.8577313,7.4288939 11.821005,11.82721 45 0 0 7.8534358,24.150413 11.821005,11.82721 45 0 0 24.574951,24.146117 11.821005,11.82721 45 0 0 27.607466,18.849463 11.821005,11.82721 45 0 1 16.215902,15.787068 11.821005,11.82721 45 0 1 13.180828,4.3886703 Z" />
         </g>
      </symbol>
      <symbol id="auto" viewBox="0 0 32 32">
         <g id="system-group">
            <path id="system-body"
               d="M 16.0008,4.1458225 C 12.854927,4.1456403 9.8379494,5.3945131 7.6135708,7.617616 5.389159,9.8408349 4.1394744,12.856155 4.1394744,16.000207 c 0,3.144051 1.2496846,6.159371 3.4740964,8.38259 2.2243786,2.223053 5.2413562,3.471926 8.3870642,3.47176 6.550369,-1.65e-4 11.860481,-5.30746 11.860481,-11.85435 0,-6.5468905 -5.310112,-11.8542519 -11.860481,-11.8543845 z m 0,1.6686485 c 5.62788,-1.66e-5 10.190458,4.559844 10.190789,10.184907 0,2.701363 -1.073587,5.292219 -2.984836,7.202308 -1.911083,1.910255 -4.503265,2.983345 -7.205953,2.983345 z"
            />
         </g>
      </symbol>
   </defs>
</svg>